<svg width="599" height="73" viewBox="0 0 599 73" fill="none" xmlns="http://www.w3.org/2000/svg">
<g clip-path="url(#clip0_26_2)">
<g clip-path="url(#clip1_26_2)">
<path fill-rule="evenodd" clip-rule="evenodd" d="M5.65858 5.96638C5.84143 7.04499 6.01633 8.12747 6.1813 9.21774C7.46125 17.6852 8.02968 26.4831 5.21338 34.5678C2.69322 41.8032 0.389701 48.784 0.842852 56.3847C0.771302 57.9589 0.268463 58.7887 0.155175 60.4154C0.0925995 61.324 0.0468793 62.2337 0.0180368 63.1439C-0.0495384 65.2156 0.069712 65.7734 0.427463 67.3281C0.580501 68.0025 0.87664 68.2551 1.31588 68.4845C5.91895 71.0109 16.3553 72.1556 23.415 71.8699C25.1302 71.8019 26.6447 71.7397 27.7875 71.7319H27.8332C33.5095 71.524 41.6245 71.4035 49.4573 71.4657C55.865 71.5162 62.0978 71.6892 66.6691 72.0371C71.4848 72.5112 75.2611 72.7736 79.0155 72.8999C82.756 73.0263 86.4686 73.0185 91.1631 72.9563C97.5152 73.0321 104.795 72.0623 111.356 70.6864C118.784 69.1297 125.326 67.0424 128.584 65.3594C129.524 64.9066 129.703 64.2575 129.826 63.5967C129.989 62.1955 130.063 60.7205 129.935 59.1074C129.782 57.2444 129.401 55.4059 128.803 53.6309C128.602 53.0517 128.216 52.2219 127.36 51.6486C122.749 48.3953 116.516 49.1124 111.144 49.1901C110.233 49.2154 109.202 49.3262 108.216 49.3592L108.204 49.3417L107.636 49.3612C106.155 49.0469 104.676 48.723 103.199 48.3894C101.709 48.0591 100.834 49.4583 100.58 50.7915C100.57 50.877 100.554 50.9606 100.54 51.0461C100.395 51.7584 99.9744 52.3886 99.3663 52.8058C98.7583 53.2231 98.0092 53.3953 97.2747 53.2869C95.7125 53.0673 94.6572 51.6233 94.8599 50.0647C95.0984 48.2223 94.7625 46.2944 91.8528 45.3499C91.027 45.0747 90.214 44.7641 89.4161 44.419C87.0112 43.4084 85.4789 43.7893 84.0618 47.1398C84.028 47.2214 83.9902 47.2972 83.9525 47.375C83.6169 48.0235 83.0387 48.5206 82.3381 48.7631C81.6374 49.0056 80.8681 48.9748 80.1901 48.6771C78.7472 48.0552 78.0297 46.3508 78.7035 44.9263C79.882 42.427 80.5558 40.468 77.666 38.8725C77.02 38.5149 76.4337 38.1145 75.8216 37.755C73.7228 36.5209 72.0731 35.4384 69.4297 38.3847L68.2353 39.8228C67.7493 40.3954 67.0533 40.7591 66.2963 40.8359C65.5394 40.9127 64.7819 40.6965 64.186 40.2336C63.5902 39.7707 63.2035 39.098 63.1089 38.3597C63.0143 37.6214 63.2193 36.8762 63.6799 36.2838C63.9979 35.9029 64.3159 35.5181 64.6399 35.1372C66.206 33.2987 67.3488 31.0891 63.9879 27.9543C61.7222 25.8437 60.2514 24.9109 56.495 27.9582L55.2469 28.9843C55.1813 29.0426 55.1117 29.0932 55.0422 29.1456C54.4323 29.5824 53.6725 29.7699 52.9236 29.6685C52.1748 29.567 51.4957 29.1846 51.0302 28.6021C50.5648 28.0196 50.3494 27.2829 50.4297 26.5478C50.5101 25.8128 50.8798 25.1372 51.4607 24.6641C52.0987 24.1452 52.7168 23.603 53.3727 23.1074C57.2821 20.1573 55.1495 17.763 53.6171 16.1188C51.8204 14.189 50.5325 12.6168 46.5416 15.5552L45.0589 16.7291C44.9914 16.7874 44.9198 16.836 44.8502 16.8884C44.2324 17.3237 43.4647 17.5049 42.7118 17.3929C41.9589 17.281 41.281 16.8849 40.8234 16.2897C40.3658 15.6945 40.1651 14.9476 40.2643 14.2093C40.3636 13.471 40.7549 12.8002 41.3542 12.3408C42.2466 11.6451 43.0992 10.8949 44.0274 10.2439C47.0544 8.12553 44.4766 3.4341 42.7534 1.45181C41.1415 -0.40028 40.1538 -0.272014 38.041 0.678322C36.3735 1.42848 34.3025 3.01043 33.1776 4.81588C29.0714 10.6189 22.9936 4.39804 17.0649 3.59152C13.6007 3.11732 3.70884 0.553943 5.6566 5.96833L5.65858 5.96638ZM4.11031 58.7498C7.4692 59.364 12.8176 61.9798 21.2387 61.8069C34.4238 61.5348 48.6643 59.7254 63.0439 61.6125C85.8247 64.5996 98.9283 63.2955 109.687 58.5419C110.75 58.3903 111.386 56.6918 111.161 55.8969C110.744 54.3616 110.148 52.7583 109.512 51.5475C109.399 50.842 110.337 50.8692 111.285 50.8284C118.603 50.6341 122.355 50.4048 125.823 52.6689C126.622 53.1897 126.948 53.59 127.155 54.2489C127.737 56.0815 128.049 57.714 128.169 59.2182C128.467 63.0545 127.908 63.9135 124.959 65.0679C121.568 66.3933 116.667 67.8082 111.046 68.9859C104.567 70.3463 97.394 71.3024 91.1711 71.2266H91.1512C86.4806 71.2908 82.7878 71.0226 79.0612 70.8963C69.0521 70.5581 59.8579 69.8196 49.4712 69.738C40.8454 69.67 31.9493 69.7963 23.3553 70.1422C17.4525 70.3793 9.60577 69.6039 4.796 68.0239C2.51435 67.2776 2.36727 67.1338 2.21225 64.9086C2.08902 63.1128 2.07709 60.4037 2.54217 59.5991C2.68924 59.3225 2.91643 59.0944 3.19534 58.9434C3.47424 58.7923 3.7925 58.725 4.11031 58.7498ZM27.1117 19.3819C25.386 19.3819 23.6771 19.7142 22.0827 20.36C20.4884 21.0058 19.0397 21.9523 17.8194 23.1455C16.5991 24.3387 15.6311 25.7553 14.9707 27.3143C14.3103 28.8734 13.9703 30.5443 13.9703 32.2318C13.9703 33.9193 14.3103 35.5902 14.9707 37.1492C15.6311 38.7083 16.5991 40.1248 17.8194 41.3181C19.0397 42.5113 20.4884 43.4578 22.0827 44.1036C23.6771 44.7494 25.386 45.0817 27.1117 45.0817C30.5971 45.0817 33.9396 43.7279 36.4041 41.3181C38.8686 38.9082 40.2531 35.6398 40.2531 32.2318C40.2531 28.8238 38.8686 25.5553 36.4041 23.1455C33.9396 20.7357 30.5971 19.3819 27.1117 19.3819Z" fill="#1F1F1F"/>
</g>
<path d="M154.695 57.59C154.788 56.7733 155.08 55.9683 155.57 55.175C156.06 54.3817 156.597 53.7633 157.18 53.32C159.257 54.7433 161.52 55.8983 163.97 56.785C166.443 57.6717 168.858 58.115 171.215 58.115C174.482 58.115 177.072 57.4383 178.985 56.085C180.922 54.7083 181.89 52.83 181.89 50.45C181.89 48.3267 181.167 46.5533 179.72 45.13C178.297 43.6833 176.535 42.5167 174.435 41.63L165.965 38.06C163.002 36.8 160.692 35.225 159.035 33.335C157.378 31.445 156.55 29.1 156.55 26.3C156.55 23.9667 157.168 21.82 158.405 19.86C159.642 17.9 161.392 16.325 163.655 15.135C165.942 13.945 168.637 13.35 171.74 13.35C174.447 13.35 176.99 13.7 179.37 14.4C181.75 15.0767 183.85 15.8583 185.67 16.745C185.647 17.515 185.437 18.32 185.04 19.16C184.643 19.9767 184.142 20.6417 183.535 21.155C181.692 20.1983 179.732 19.4283 177.655 18.845C175.602 18.2383 173.688 17.935 171.915 17.935C168.998 17.935 166.618 18.67 164.775 20.14C162.932 21.5867 162.01 23.4883 162.01 25.845C162.01 27.735 162.675 29.2517 164.005 30.395C165.358 31.515 166.957 32.46 168.8 33.23L177.025 36.66C178.868 37.43 180.583 38.3983 182.17 39.565C183.757 40.7083 185.028 42.085 185.985 43.695C186.965 45.305 187.455 47.1833 187.455 49.33C187.455 51.92 186.848 54.2417 185.635 56.295C184.445 58.325 182.637 59.9233 180.21 61.09C177.783 62.2567 174.703 62.84 170.97 62.84C168.03 62.84 165.137 62.3617 162.29 61.405C159.443 60.4483 156.912 59.1767 154.695 57.59ZM193.817 18.81C193.724 18.4133 193.654 18.0283 193.607 17.655C193.584 17.2583 193.572 16.8733 193.572 16.5C193.572 16.1267 193.584 15.7533 193.607 15.38C193.654 14.9833 193.724 14.5867 193.817 14.19H224.617C224.734 14.5167 224.816 14.8783 224.862 15.275C224.932 15.6483 224.967 16.0217 224.967 16.395C224.967 17.2583 224.699 17.8767 224.162 18.25C223.649 18.6233 222.844 18.81 221.747 18.81H215.727C215.307 18.81 214.677 18.7983 213.837 18.775C213.021 18.7517 212.379 18.74 211.912 18.74H206.557C206.114 18.74 205.484 18.7517 204.667 18.775C203.851 18.7983 203.209 18.81 202.742 18.81H193.817ZM206.557 23.92C206.557 22.9633 206.557 22.1117 206.557 21.365C206.557 20.595 206.557 19.72 206.557 18.74V16.5H211.912V18.74C211.912 19.72 211.912 20.595 211.912 21.365C211.912 22.1117 211.912 22.9633 211.912 23.92V62C211.539 62.07 211.107 62.1167 210.617 62.14C210.151 62.1867 209.696 62.21 209.252 62.21C208.809 62.21 208.342 62.1867 207.852 62.14C207.386 62.1167 206.954 62.07 206.557 62V23.92ZM266.262 27.84C266.262 29.94 265.889 31.8533 265.142 33.58C264.395 35.2833 263.334 36.7417 261.957 37.955C260.58 39.145 258.947 40.02 257.057 40.58C258.13 40.93 259.064 41.6417 259.857 42.715C260.65 43.765 261.292 44.9317 261.782 46.215L265.422 55.665C266.005 57.205 266.495 58.3133 266.892 58.99C267.312 59.6433 267.802 60.2033 268.362 60.67C267.989 61.2767 267.429 61.72 266.682 62C265.935 62.28 265.259 62.42 264.652 62.42C263.579 62.42 262.785 62.1167 262.272 61.51C261.759 60.9033 261.28 60.0283 260.837 58.885L256.812 48.245C256.135 46.425 255.26 44.9083 254.187 43.695C253.137 42.4583 251.434 41.84 249.077 41.84H239.592V37.43C240.689 37.3833 241.902 37.3483 243.232 37.325C244.562 37.2783 245.904 37.255 247.257 37.255C248.61 37.2317 249.847 37.22 250.967 37.22C253.534 37.22 255.505 36.7417 256.882 35.785C258.282 34.8283 259.25 33.6383 259.787 32.215C260.324 30.7683 260.592 29.31 260.592 27.84C260.592 26.3 260.324 24.8183 259.787 23.395C259.25 21.9483 258.282 20.77 256.882 19.86C255.505 18.9267 253.534 18.46 250.967 18.46C249.824 18.46 248.33 18.46 246.487 18.46C244.667 18.4367 243.115 18.4133 241.832 18.39V62C241.459 62.07 241.027 62.1167 240.537 62.14C240.07 62.1867 239.58 62.21 239.067 62.21C238.624 62.21 238.157 62.1867 237.667 62.14C237.2 62.1167 236.792 62.07 236.442 62V14.61L236.897 14.19C239.324 14.1433 241.727 14.0967 244.107 14.05C246.487 14.0033 248.797 13.98 251.037 13.98C254.28 13.98 257.034 14.54 259.297 15.66C261.56 16.78 263.287 18.3783 264.477 20.455C265.667 22.5083 266.262 24.97 266.262 27.84ZM281.716 14.19C282.066 14.12 282.474 14.0733 282.941 14.05C283.408 14.0033 283.874 13.98 284.341 13.98C284.854 13.98 285.344 14.0033 285.811 14.05C286.301 14.0733 286.733 14.12 287.106 14.19V62C286.733 62.07 286.301 62.1167 285.811 62.14C285.344 62.1867 284.854 62.21 284.341 62.21C283.874 62.21 283.408 62.1867 282.941 62.14C282.474 62.1167 282.066 62.07 281.716 62V14.19ZM338.327 38.13C338.327 40.86 338.152 43.4733 337.802 45.97C337.452 48.4433 336.764 50.7533 335.737 52.9C334.734 55.0467 333.205 56.9833 331.152 58.71C330.172 59.55 328.982 60.2383 327.582 60.775C326.205 61.2883 324.782 61.6733 323.312 61.93C321.865 62.1633 320.535 62.28 319.322 62.28C317.502 62.28 315.904 62.2683 314.527 62.245C313.174 62.2217 311.774 62.1867 310.327 62.14C308.904 62.0933 307.177 62.0467 305.147 62L304.692 61.58V14.61L305.147 14.19C307.177 14.12 308.904 14.0733 310.327 14.05C311.75 14.0033 313.15 13.98 314.527 13.98C315.904 13.98 317.502 13.98 319.322 13.98C320.535 13.98 321.865 14.1083 323.312 14.365C324.782 14.5983 326.205 14.9833 327.582 15.52C328.982 16.0333 330.172 16.71 331.152 17.55C333.182 19.2767 334.71 21.225 335.737 23.395C336.764 25.5417 337.452 27.8633 337.802 30.36C338.152 32.8333 338.327 35.4233 338.327 38.13ZM332.657 38.13C332.657 35.8667 332.494 33.58 332.167 31.27C331.864 28.96 331.245 26.8483 330.312 24.935C329.402 22.9983 328.06 21.4467 326.287 20.28C324.514 19.09 322.169 18.495 319.252 18.495C317.642 18.495 316.16 18.4833 314.807 18.46C313.454 18.4367 311.879 18.425 310.082 18.425V57.695C311.879 57.695 313.454 57.7067 314.807 57.73C316.16 57.7533 317.642 57.765 319.252 57.765C322.169 57.765 324.514 57.1817 326.287 56.015C328.06 54.825 329.402 53.2617 330.312 51.325C331.245 49.3883 331.864 47.265 332.167 44.955C332.494 42.645 332.657 40.37 332.657 38.13ZM352.831 14.61L353.251 14.19H358.011V18.6C358.011 19.58 358.022 20.3383 358.046 20.875C358.069 21.4117 358.081 22.1583 358.081 23.115V54.825C358.081 55.2917 358.069 55.735 358.046 56.155C358.022 56.5517 358.011 57.0067 358.011 57.52V62H355.911C354.977 62 354.231 61.685 353.671 61.055C353.111 60.425 352.831 59.5617 352.831 58.465V14.61ZM376.736 35.505C376.806 35.8783 376.852 36.275 376.876 36.695C376.922 37.115 376.946 37.4767 376.946 37.78C376.946 38.0833 376.922 38.445 376.876 38.865C376.852 39.285 376.806 39.6933 376.736 40.09H362.246C361.732 40.09 361.137 40.09 360.461 40.09C359.784 40.0667 359.072 40.055 358.326 40.055C357.602 40.0317 356.902 40.02 356.226 40.02V35.575C356.902 35.575 357.602 35.575 358.326 35.575C359.072 35.5517 359.784 35.54 360.461 35.54C361.137 35.5167 361.732 35.505 362.246 35.505H376.736ZM380.341 14.19C380.411 14.5867 380.446 14.9717 380.446 15.345C380.469 15.7183 380.481 16.0567 380.481 16.36C380.481 16.6633 380.457 17.0483 380.411 17.515C380.364 17.9583 380.259 18.39 380.096 18.81H362.246C361.732 18.81 361.137 18.81 360.461 18.81C359.784 18.81 359.072 18.81 358.326 18.81C357.602 18.7867 356.902 18.7633 356.226 18.74V14.19H380.341ZM381.496 57.345C381.496 59.165 381.216 60.4017 380.656 61.055C380.119 61.685 379.197 62 377.891 62H356.226V57.625C357.136 57.555 358.057 57.4967 358.991 57.45C359.924 57.38 361.032 57.345 362.316 57.345H381.496Z" fill="#151515"/>
<path d="M405.575 57.765C405.692 56.4117 406.112 55.0933 406.835 53.81C407.582 52.5033 408.41 51.4533 409.32 50.66C411.327 51.92 413.567 53.0167 416.04 53.95C418.537 54.86 421.01 55.315 423.46 55.315C425.863 55.315 427.672 54.7667 428.885 53.67C430.098 52.5733 430.705 51.2667 430.705 49.75C430.705 48.5833 430.308 47.44 429.515 46.32C428.745 45.2 427.357 44.22 425.35 43.38L416.915 39.88C413.998 38.6433 411.63 37.0333 409.81 35.05C407.99 33.0667 407.08 30.4883 407.08 27.315C407.08 24.585 407.792 22.1583 409.215 20.035C410.638 17.9117 412.587 16.2433 415.06 15.03C417.557 13.8167 420.38 13.21 423.53 13.21C426.657 13.21 429.585 13.6183 432.315 14.435C435.068 15.2283 437.355 16.0917 439.175 17.025C439.105 18.3783 438.778 19.6967 438.195 20.98C437.635 22.2633 436.877 23.325 435.92 24.165C434.123 23.3017 432.082 22.5317 429.795 21.855C427.508 21.1783 425.443 20.84 423.6 20.84C421.313 20.84 419.587 21.3767 418.42 22.45C417.277 23.5233 416.705 24.7483 416.705 26.125C416.705 27.3383 417.113 28.365 417.93 29.205C418.747 30.0217 419.972 30.78 421.605 31.48L430.11 34.98C432.233 35.8667 434.088 36.9633 435.675 38.27C437.262 39.5767 438.487 41.0817 439.35 42.785C440.213 44.4883 440.645 46.3667 440.645 48.42C440.645 51.1733 439.98 53.6583 438.65 55.875C437.343 58.0683 435.372 59.8067 432.735 61.09C430.098 62.35 426.797 62.98 422.83 62.98C419.96 62.98 416.985 62.525 413.905 61.615C410.825 60.705 408.048 59.4217 405.575 57.765ZM445.734 22.03C445.594 21.33 445.501 20.6417 445.454 19.965C445.408 19.2883 445.384 18.6817 445.384 18.145C445.384 17.585 445.408 16.9667 445.454 16.29C445.501 15.59 445.594 14.89 445.734 14.19H479.194C479.358 14.7033 479.474 15.2867 479.544 15.94C479.638 16.5933 479.684 17.2233 479.684 17.83C479.684 19.37 479.276 20.455 478.459 21.085C477.643 21.715 476.371 22.03 474.644 22.03H471.354C470.888 22.03 470.199 22.0183 469.289 21.995C468.379 21.9717 467.668 21.96 467.154 21.96H457.739C457.249 21.96 456.538 21.9717 455.604 21.995C454.694 22.0183 453.994 22.03 453.504 22.03H445.734ZM457.739 27.14C457.739 26.1833 457.739 25.3317 457.739 24.585C457.763 23.815 457.774 22.94 457.774 21.96V18.11H467.084V21.96C467.084 22.94 467.096 23.815 467.119 24.585C467.143 25.3317 467.154 26.1833 467.154 27.14V62C466.361 62.14 465.544 62.2333 464.704 62.28C463.864 62.3267 463.118 62.35 462.464 62.35C461.764 62.35 460.994 62.3267 460.154 62.28C459.314 62.2333 458.509 62.14 457.739 62V27.14ZM497.043 41.35H506.458V62C505.688 62.14 504.871 62.2333 504.008 62.28C503.168 62.3267 502.421 62.35 501.768 62.35C501.161 62.35 500.391 62.3267 499.458 62.28C498.548 62.2333 497.743 62.14 497.043 62V41.35ZM511.008 14.19C511.661 14.0267 512.314 13.9217 512.968 13.875C513.644 13.8283 514.286 13.805 514.893 13.805C515.709 13.805 516.514 13.8633 517.308 13.98C518.124 14.0967 518.848 14.26 519.478 14.47L519.898 15.065L505.863 48.385H497.743L483.603 15.275C484.489 14.785 485.434 14.4 486.438 14.12C487.441 13.8167 488.421 13.665 489.378 13.665C490.708 13.665 491.734 13.9683 492.458 14.575C493.181 15.1817 493.823 16.1617 494.383 17.515L498.758 28.33C499.318 29.6833 499.854 31.1767 500.368 32.81C500.904 34.4433 501.394 36.0883 501.838 37.745H502.223C502.526 36.6717 502.853 35.5633 503.203 34.42C503.576 33.2533 503.961 32.1217 504.358 31.025C504.778 29.905 505.163 28.9133 505.513 28.05L511.008 14.19ZM538.723 62.14H534.768C533.112 62.14 531.782 61.65 530.778 60.67C529.798 59.6667 529.308 58.2783 529.308 56.505V14.26L529.763 13.805H533.263C535.107 13.805 536.472 14.2833 537.358 15.24C538.268 16.1733 538.723 17.6783 538.723 19.755V62.14ZM558.113 54.02C558.113 57.0533 557.623 59.165 556.643 60.355C555.663 61.545 554.03 62.14 551.743 62.14H534.768L529.798 55.315C532.412 54.8483 535.06 54.5217 537.743 54.335C540.45 54.125 542.9 54.02 545.093 54.02H558.113ZM569.039 14.645L569.494 14.19H578.244V21.89C578.244 22.87 578.255 23.71 578.279 24.41C578.302 25.11 578.314 25.9383 578.314 26.895V50.03C578.314 50.8 578.302 51.5117 578.279 52.165C578.255 52.795 578.244 53.5183 578.244 54.335V62.14H574.429C572.749 62.14 571.43 61.6383 570.474 60.635C569.517 59.6317 569.039 58.2667 569.039 56.54V14.645ZM594.729 34.07C594.915 34.6533 595.044 35.3183 595.114 36.065C595.207 36.7883 595.254 37.4067 595.254 37.92C595.254 38.4567 595.207 39.0867 595.114 39.81C595.044 40.51 594.915 41.1633 594.729 41.77H582.864C582.304 41.77 581.545 41.77 580.589 41.77C579.632 41.7467 578.652 41.735 577.649 41.735C576.645 41.7117 575.782 41.6883 575.059 41.665V34.175C575.782 34.1517 576.645 34.14 577.649 34.14C578.652 34.1167 579.632 34.105 580.589 34.105C581.545 34.0817 582.304 34.07 582.864 34.07H594.729ZM598.719 14.19C598.859 14.89 598.94 15.555 598.964 16.185C598.987 16.7917 598.999 17.3633 598.999 17.9C598.999 18.4367 598.94 19.09 598.824 19.86C598.707 20.63 598.52 21.3767 598.264 22.1H582.864C582.304 22.1 581.545 22.1 580.589 22.1C579.632 22.0767 578.652 22.0533 577.649 22.03C576.645 22.0067 575.782 21.9833 575.059 21.96V14.19H598.719ZM600.259 54.23C600.259 56.9133 599.839 58.9083 598.999 60.215C598.182 61.4983 596.549 62.14 594.099 62.14H575.059V54.545C576.389 54.475 577.672 54.405 578.909 54.335C580.169 54.265 581.58 54.23 583.144 54.23H600.259Z" fill="#151515"/>
</g>
<defs>
<clipPath id="clip0_26_2">
<rect width="599" height="73" fill="white"/>
</clipPath>
<clipPath id="clip1_26_2">
<rect width="130" height="73" fill="white"/>
</clipPath>
</defs>
</svg>
